# xmcd
#
# Track frame offsets:
# 150
# 12867
# 36513
# 44797
# 78631
# 80967
# 90094
# 95077
# 118175
# 125896
# 156484
# 161734
# 174062
# 176210
# 199851
# 217555
# 224249
# 234724
# 263610
#
# Disc length: 3752 seconds
#
#
# Revision: 0
# Processed by: cddbd v1.5.2PL0 Copyright (c) Steve Scherf et al.
# Submitted via: FreeRIP 2.96 
#
DISCID=190ea613
DTITLE=Helge Schneider - Aprikose, Banane, Erdbeer CD1v3
DYEAR=2004
DGENRE=Hörbuch
TTITLE0=01 Der graue Beton raste durch sein Hirn...
TTITLE1=02 Guten Morgen Herr Waterkant, wie geht es Ihnen? ...
TTITLE2=03 Ein fahles Licht schoss quer in seine von Tabletten aufgedunsene Wange ...
TTITLE3=04 Im Krankenhaus  lahmte ein in sich gekehrter Kommissar Schneider...
TTITLE4=05 Der Morgen schimmerte wie ein blankes Tuch unter der Sonne...
TTITLE5=06 Radieschen schmückten den Teller mit der Fleischwurst...
TTITLE6=07 Wasser drang unten in die Zelle. Er hatte Angst...
TTITLE7=08 Ping, machte der Mikrowellenherd, und die kleine Drehscheibe...
TTITLE8=09 Der Stall stank bestialisch nach Urin. Die Tiere darin hatten kaum Platz...
TTITLE9=10 Keuchender Atem trieb mich, das Deck war von Menschen bevölkert...
TTITLE10=11 Schwer legte sich der Atem der untergehenden Sonne auf das Haupt...
TTITLE11=12 Der Kommissar sitzt zu Hause in seinem Sessel und liest die Tageszeitung...
TTITLE12=13 Geben Sie ihm doch die gewünschte Postkarte, merken Sie denn nicht...
TTITLE13=14 Die Big Band der Feuerwehr spielte. Viel los war nicht auf dem Vorplatz....
TTITLE14=15 Der Fremde wurde wach. In einem Gebüsch hatte er gelegen...
TTITLE15=16 Das Haarteil des Kommissars lag neben der Matratze...
TTITLE16=17 Rattattatta, rattattatta, das Rattern der Maschine war nicht überhörbar...
TTITLE17=18 Nobody knows the trouble I've seen, nobody knows but Jesus...
TTITLE18=19 Der Fremde hatte sich den ganzen Tag in der Stadtbücherei aufgehalten...
EXTD=gelesen von Helge Schneider
EXTT0=
EXTT1=
EXTT2=
EXTT3=
EXTT4=
EXTT5=
EXTT6=
EXTT7=
EXTT8=
EXTT9=
EXTT10=
EXTT11=
EXTT12=
EXTT13=
EXTT14=
EXTT15=
EXTT16=
EXTT17=
EXTT18=
PLAYORDER=
